<svg id="eoWG8NBC4Lh1" xmlns="http://www.w3.org/2000/svg" xmlns:xlink="http://www.w3.org/1999/xlink" viewBox="0 0 300 300" shape-rendering="geometricPrecision" text-rendering="geometricPrecision"><defs><linearGradient id="eoWG8NBC4Lh3-fill" x1="0" y1="0.5" x2="1" y2="0.5" spreadMethod="pad" gradientUnits="objectBoundingBox" gradientTransform="translate(0 0)"><stop id="eoWG8NBC4Lh3-fill-0" offset="0%" stop-color="#00f5ee"/><stop id="eoWG8NBC4Lh3-fill-1" offset="99%" stop-color="#9300f0"/><stop id="eoWG8NBC4Lh3-fill-2" offset="100%" stop-color="#7400f5"/></linearGradient></defs><g transform="matrix(2.897209 0 0 2.959163-284.715222-358.155578)"><ellipse rx="51.382597" ry="49.595377" transform="translate(150 171.722754)" fill="url(#eoWG8NBC4Lh3-fill)"/><line x1="0.188787" y1="-14.347837" x2="-0.188787" y2="14.347837" transform="matrix(1 0 0 1.052631 122.461488 172.984536)" fill="none" stroke="#fff" stroke-width="3"/><line x1="0" y1="-34.359294" x2="0" y2="34.359294" transform="translate(152.448251 166.314231)" fill="none" stroke="#fff" stroke-width="3"/><line x1="0" y1="-11.704814" x2="0" y2="11.704814" transform="matrix(1 0 0 0.967742 177.034221 184.311776)" fill="none" stroke="#fff" stroke-width="3"/><path d="M98.617403,171.722754c7.336891,2.000972,13.153224-3.414339,21.63983-15.102978c11.868498,5.194456,26.057591-5.798282,29.742766-19.256316c3.903089,16.436611,15.337969,35.585294,24.627985,33.981719c13.041296,1.330039,22.33363-14.539992,22.818825-23.406626" transform="matrix(.980533 0 0 0.999998 5.564248 15.99481)" fill="none" stroke="#fff" stroke-width="3"/></g><rect width="16.267449" height="14.388577" rx="0" ry="0" transform="translate(61.908862 147.040882)" fill="#fff" stroke-width="0"/><rect width="16.267449" height="14.388577" rx="0" ry="0" transform="translate(148.825499 101.847398)" fill="#fff" stroke-width="0"/><rect width="16.267449" height="14.388577" rx="0" ry="0" transform="translate(220.056192 189.25301)" fill="#fff" stroke-width="0"/></svg>
